<svg width="205" height="30" viewBox="0 0 205 30" fill="none" xmlns="http://www.w3.org/2000/svg">
<g clip-path="url(#clip0)">
<path d="M7.58092 15.8921L19.1347 4.20981C19.9153 3.42394 20.9714 2.9828 22.0724 2.9828C23.1733 2.9828 24.2295 3.42394 25.01 4.20981L25.9079 5.11865L27.7078 3.29681L26.8099 2.38381C25.5509 1.11214 23.8449 0.397949 22.0662 0.397949C20.2876 0.397949 18.5816 1.11214 17.3225 2.38381L5.77692 14.0702L7.58092 15.8921Z" fill="#E9E9E9"/>
<path d="M23.0051 8.05711L21.2052 6.23526L9.64733 17.9341C8.86658 18.7238 7.80788 19.1673 6.70413 19.1669C5.60037 19.1665 4.54198 18.7223 3.76178 17.932C2.98158 17.1418 2.54348 16.0702 2.54386 14.9529C2.54425 13.8357 2.98308 12.7644 3.76383 11.9747L13.735 1.88191L11.9351 0.0600586L1.96393 10.1529C1.32916 10.7805 0.823724 11.5293 0.476907 12.3561C0.130089 13.1828 -0.0512212 14.071 -0.056521 14.9691C-0.0618208 15.8673 0.108995 16.7576 0.446032 17.5884C0.783069 18.4193 1.27963 19.1742 1.90694 19.8095C2.53426 20.4447 3.27987 20.9476 4.10058 21.2891C4.92129 21.6307 5.80078 21.8039 6.68812 21.799C7.57546 21.794 8.45301 21.6108 9.26993 21.2602C10.0868 20.9095 10.8269 20.3982 11.4472 19.756L23.0051 8.05711ZM34.5097 10.1529C33.2502 8.8822 31.5443 8.16871 29.766 8.16871C27.9877 8.16871 26.2819 8.8822 25.0223 10.1529L13.4644 21.8517L15.2643 23.6736L26.8222 11.9747C27.4044 11.3866 28.1458 10.9862 28.9527 10.8243C29.7595 10.6624 30.5957 10.7462 31.3556 11.065C32.1154 11.3839 32.7649 11.9235 33.2219 12.6157C33.679 13.308 33.9231 14.1218 33.9234 14.9544C33.9255 15.5091 33.8178 16.0585 33.6065 16.5703C33.3952 17.0821 33.0848 17.5458 32.6934 17.9341L22.7345 28.0269L24.5385 29.8488L34.5097 19.756C35.7661 18.4816 36.4717 16.7547 36.4717 14.9544C36.4717 13.1541 35.7661 11.4273 34.5097 10.1529Z" fill="#E9E9E9"/>
<path d="M28.8927 14.0166L17.3348 25.7113C16.5532 26.4999 15.4946 26.9428 14.391 26.9428C13.2874 26.9428 12.2288 26.4999 11.4472 25.7113L10.5493 24.7983L8.74939 26.6201L9.64729 27.5331C10.9069 28.8038 12.6127 29.5173 14.391 29.5173C16.1693 29.5173 17.8751 28.8038 19.1347 27.5331L30.6926 15.8302L28.8927 14.0166Z" fill="#E9E9E9"/>
<path d="M47.027 18.1C47.1453 18.7939 47.5188 19.4167 48.0725 19.843C48.7077 20.2877 49.47 20.508 50.2414 20.4696C50.9757 20.517 51.7026 20.2977 52.2914 19.8513C52.5261 19.6536 52.7132 19.4043 52.8382 19.1224C52.9633 18.8405 53.0231 18.5333 53.013 18.2245C53.0213 17.9355 52.9548 17.6494 52.8203 17.3945C52.6856 17.1631 52.5005 16.9658 52.2791 16.8176C52.0151 16.6402 51.7281 16.5005 51.4263 16.4026L50.2865 16.054L49.2 15.7552C48.5977 15.5937 48.0116 15.3755 47.4493 15.1037C46.9666 14.8726 46.5203 14.5706 46.125 14.2073C45.7724 13.8759 45.493 13.4728 45.305 13.0245C45.1045 12.5313 45.0068 12.0015 45.018 11.4683C45.0122 10.8775 45.1383 10.293 45.387 9.75847C45.6267 9.23827 45.9817 8.781 46.4243 8.42217C46.9112 8.02771 47.4678 7.73055 48.0643 7.54652C48.7614 7.32293 49.4897 7.21502 50.2209 7.22697C51.727 7.22697 52.9201 7.58663 53.8002 8.30597C54.2364 8.66152 54.5982 9.10159 54.8643 9.60041C55.1304 10.0992 55.2955 10.6468 55.35 11.211L52.89 11.4143C52.7683 10.843 52.4519 10.3332 51.9962 9.97427C51.4438 9.60048 50.7858 9.41977 50.1225 9.45967C49.4966 9.42242 48.8775 9.60735 48.3718 9.98257C48.1699 10.1419 48.0076 10.3469 47.8979 10.5811C47.7883 10.8153 47.7343 11.0722 47.7404 11.3313C47.7303 11.6075 47.7941 11.8814 47.9249 12.124C48.0568 12.3479 48.2378 12.5382 48.4538 12.6801C48.7172 12.8535 49.0009 12.9929 49.2984 13.0951C49.6305 13.2196 50.0077 13.3524 50.4259 13.4893L51.4673 13.8172C52.1151 14.0247 52.7014 14.2405 53.2262 14.4646C53.7088 14.6723 54.158 14.9521 54.5587 15.2946C54.9199 15.604 55.2084 15.9911 55.4033 16.4275C55.6143 16.9426 55.7149 17.497 55.6985 18.0543C55.7053 18.7058 55.5651 19.3502 55.2885 19.9384C55.0217 20.5034 54.6321 21 54.1487 21.3909C53.6293 21.8066 53.0386 22.1218 52.4062 22.3205C51.6857 22.5473 50.9344 22.658 50.1799 22.6484C48.8456 22.6987 47.5292 22.3242 46.4161 21.5777C45.8965 21.197 45.4614 20.7106 45.1387 20.1495C44.816 19.5884 44.6129 18.9652 44.5424 18.3199L47.027 18.1ZM66.0715 7.26847C67.1028 7.25496 68.1267 7.44672 69.085 7.83287C69.9602 8.18768 70.7501 8.72825 71.4015 9.41817C72.0551 10.1216 72.5614 10.9517 72.8898 11.8584C73.2504 12.855 73.4296 13.9095 73.4187 14.9709C73.4334 16.0517 73.2427 17.1252 72.857 18.1332C72.4974 19.0493 71.9544 19.8801 71.2621 20.5734L73.2137 22.8849V23.6029H70.7537L69.3884 21.9138C68.8938 22.1534 68.3757 22.3397 67.8427 22.4699C67.2674 22.5944 66.6804 22.6557 66.092 22.6525C65.0489 22.6589 64.0149 22.4558 63.0498 22.0549C62.1796 21.6978 61.3952 21.1558 60.7497 20.4655C60.1041 19.7652 59.606 18.9392 59.286 18.0377C58.9324 17.0509 58.7561 16.0081 58.7653 14.9584C58.7551 13.9019 58.9314 12.8521 59.286 11.8584C59.608 10.9538 60.1104 10.1261 60.762 9.42647C61.4118 8.73638 62.1984 8.19329 63.0703 7.83287C64.023 7.44214 65.0438 7.25017 66.0715 7.26847ZM66.051 9.49287C65.3741 9.4823 64.7033 9.62405 64.0871 9.90787C63.521 10.1726 63.0208 10.5626 62.6234 11.0491C62.2102 11.5593 61.8983 12.1455 61.705 12.7755C61.4911 13.477 61.386 14.2078 61.3934 14.9418C61.3862 15.6822 61.4956 16.4191 61.7173 17.1247C61.9159 17.7605 62.2302 18.353 62.6439 18.8719C63.0406 19.3643 63.5406 19.7612 64.1076 20.0339C64.7232 20.3197 65.3944 20.4615 66.0715 20.4489C66.7481 20.4555 67.418 20.314 68.0354 20.0339C68.6004 19.7748 69.1007 19.3904 69.4991 18.9092C69.9177 18.3983 70.2326 17.8088 70.4257 17.1745C70.65 16.4523 70.7607 15.6989 70.7537 14.9418C70.76 14.1957 70.6493 13.4533 70.4257 12.7423C70.2297 12.1118 69.9151 11.5255 69.4991 11.0159C69.0965 10.5346 68.5939 10.1492 68.0272 9.88712C67.4048 9.61125 66.7303 9.47668 66.051 9.49287ZM83.0824 20.5526C83.5382 20.581 83.9947 20.508 84.4196 20.3388C84.8446 20.1697 85.2279 19.9083 85.5424 19.5732C86.1246 18.9231 86.4157 17.9243 86.4157 16.5769V7.55482H88.97V16.6599C88.9902 17.5927 88.8515 18.5221 88.56 19.4072C88.3245 20.1162 87.9269 20.7589 87.3997 21.283C86.8767 21.7843 86.2426 22.1514 85.5506 22.3537C83.9408 22.8043 82.2404 22.8043 80.6306 22.3537C79.9411 22.1512 79.3098 21.784 78.7897 21.283C78.2638 20.7578 77.8665 20.1155 77.6294 19.4072C77.3381 18.522 77.1994 17.5927 77.2194 16.6599V7.55482H79.7819V16.5769C79.7819 17.9215 80.0744 18.9203 80.6593 19.5732C80.9694 19.9038 81.3466 20.1625 81.7649 20.3316C82.1831 20.5007 82.6326 20.5761 83.0824 20.5526ZM91.5284 21.6399L96.7149 7.57142H100.561L105.69 21.6399V22.3454H103.168L101.701 18.1207H95.3742L93.89 22.3454H91.512L91.5284 21.6399ZM96.145 15.9129H100.971L100.175 13.564C99.8637 12.6469 99.6136 11.904 99.4209 11.3189C99.2282 10.7337 99.0642 10.2357 98.9125 9.79582H98.2852L98.0392 10.4972C97.9572 10.7296 97.867 10.991 97.7645 11.2774C97.662 11.5637 97.5513 11.8957 97.4283 12.2692C97.3053 12.6427 97.1577 13.0702 96.9814 13.564L96.145 15.9129ZM120.015 22.3454H117.555L113.099 16.5354H111.459V22.3454H108.933V7.55482H113.677C114.387 7.55355 115.097 7.60487 115.8 7.70837C116.454 7.80428 117.078 8.04828 117.625 8.42217C118.778 9.1913 119.355 10.3505 119.355 11.8999C119.367 12.5003 119.265 13.0975 119.056 13.6595C118.879 14.1326 118.613 14.5667 118.273 14.9377C117.948 15.2863 117.567 15.5756 117.145 15.7926C116.722 16.0113 116.275 16.1772 115.813 16.2864L120.015 21.6399V22.3454ZM111.45 14.311H113.668C114.473 14.3544 115.273 14.1674 115.977 13.7715C116.26 13.5797 116.488 13.3147 116.637 13.0039C116.785 12.6931 116.849 12.3477 116.821 12.0036C116.855 11.6621 116.792 11.3179 116.641 11.0109C116.489 10.7039 116.254 10.4467 115.964 10.2689C115.253 9.91073 114.462 9.74219 113.668 9.77922H111.45V14.311ZM123.271 7.55482H132.733V9.82072H125.763V13.6927H132.233V15.9171H125.776V20.0671H132.877V22.3454H123.271V7.55482ZM138.535 18.1C138.653 18.7939 139.027 19.4167 139.58 19.843C140.216 20.2871 140.978 20.5074 141.749 20.4696C142.484 20.517 143.21 20.2977 143.799 19.8513C144.034 19.6536 144.221 19.4043 144.346 19.1224C144.471 18.8405 144.531 18.5333 144.521 18.2245C144.529 17.9355 144.463 17.6494 144.328 17.3945C144.193 17.1631 144.008 16.9658 143.787 16.8176C143.523 16.6402 143.236 16.5005 142.934 16.4026L141.794 16.054L140.696 15.7469C140.093 15.5854 139.507 15.3672 138.945 15.0954C138.462 14.8643 138.016 14.5623 137.621 14.199C137.268 13.8676 136.989 13.4645 136.801 13.0162C136.598 12.4939 136.501 11.9358 136.515 11.3748C136.529 10.8138 136.654 10.2614 136.883 9.75017C137.124 9.23083 137.478 8.77385 137.92 8.41387C138.407 8.01941 138.963 7.72225 139.56 7.53822C140.257 7.31463 140.985 7.20672 141.716 7.21867C143.223 7.21867 144.417 7.57833 145.3 8.29767C145.736 8.65344 146.097 9.09363 146.362 9.59246C146.627 10.0913 146.792 10.6387 146.846 11.2027L144.386 11.406C144.266 10.8359 143.953 10.3263 143.5 9.96597C142.948 9.59162 142.29 9.41085 141.626 9.45137C141 9.41412 140.381 9.59905 139.876 9.97427C139.674 10.134 139.513 10.3392 139.404 10.5734C139.295 10.8075 139.242 11.0643 139.248 11.323C139.237 11.5988 139.299 11.8727 139.429 12.1157C139.561 12.3396 139.742 12.5299 139.958 12.6718C140.221 12.8452 140.505 12.9846 140.802 13.0868C141.134 13.2113 141.512 13.3441 141.934 13.481L142.971 13.8089C143.622 14.0164 144.208 14.2322 144.73 14.4563C145.213 14.664 145.662 14.9438 146.063 15.2863C146.424 15.5957 146.712 15.9828 146.907 16.4192C147.118 16.9343 147.219 17.4887 147.202 18.046C147.209 18.6975 147.069 19.3419 146.792 19.9301C146.527 20.496 146.137 20.9928 145.653 21.3826C145.132 21.795 144.542 22.1072 143.91 22.3039C143.188 22.5307 142.435 22.6413 141.68 22.6318C140.345 22.6815 139.029 22.3071 137.916 21.5611C137.4 21.1815 136.967 20.6973 136.646 20.1392C136.325 19.5812 136.122 18.9616 136.05 18.3199L138.535 18.1ZM150.843 7.55482H156.173C157.018 7.53275 157.86 7.65193 158.666 7.90757C159.278 8.09868 159.839 8.42948 160.306 8.87452C160.716 9.27816 161.023 9.77665 161.2 10.327C161.388 10.9082 161.48 11.5166 161.474 12.1281C161.491 12.8172 161.363 13.5019 161.097 14.1367C160.858 14.6918 160.484 15.177 160.011 15.5477C159.493 15.9358 158.905 16.2177 158.28 16.3777C157.529 16.5728 156.756 16.6663 155.98 16.6558H153.397V22.3454H150.851L150.843 7.55482ZM153.389 14.4355H155.829C156.241 14.4386 156.653 14.4011 157.059 14.3235C157.404 14.2581 157.734 14.1301 158.035 13.9458C158.311 13.7709 158.536 13.5245 158.686 13.232C158.852 12.8886 158.932 12.5098 158.92 12.1281C158.932 11.737 158.852 11.3486 158.686 10.9952C158.54 10.6989 158.318 10.4481 158.043 10.2689C157.748 10.0833 157.421 9.95519 157.079 9.89127C156.674 9.81303 156.262 9.7755 155.849 9.77922H153.369L153.389 14.4355ZM162.18 21.6399L167.37 7.57142H171.216L176.341 21.6399V22.3454H173.84L172.376 18.1207H166.025L164.562 22.3454H162.18V21.6399ZM166.8 15.9129H171.622L170.827 13.564C170.515 12.6469 170.265 11.904 170.076 11.3189L169.568 9.79582H168.92L168.674 10.4972C168.592 10.7296 168.502 10.991 168.399 11.2774C168.297 11.5637 168.186 11.8957 168.063 12.2692C167.94 12.6427 167.792 13.0702 167.616 13.564L166.8 15.9129ZM191.847 18.432C191.616 19.0106 191.313 19.5572 190.945 20.0588C190.564 20.5729 190.106 21.0238 189.588 21.3951C189.026 21.7945 188.405 22.1 187.747 22.2998C186.992 22.5287 186.207 22.6406 185.418 22.6318C184.4 22.6474 183.39 22.4511 182.45 22.0549C181.589 21.6914 180.814 21.1484 180.174 20.4613C179.532 19.7585 179.037 18.9312 178.719 18.0294C178.371 17.0485 178.198 16.013 178.206 14.9709C178.197 13.9287 178.371 12.8931 178.719 11.9123C179.038 11.0065 179.536 10.1761 180.183 9.47212C180.826 8.7777 181.605 8.22649 182.47 7.85362C183.413 7.45226 184.428 7.25302 185.451 7.26847C186.874 7.21727 188.277 7.61302 189.469 8.40142C190.528 9.13182 191.331 10.184 191.761 11.406L189.174 11.9206C188.852 11.2018 188.341 10.5861 187.698 10.1403C187.018 9.69456 186.22 9.46877 185.41 9.49287C184.746 9.47815 184.088 9.62024 183.487 9.90787C182.934 10.1825 182.448 10.5779 182.065 11.0657C181.662 11.5853 181.361 12.1785 181.179 12.8129C180.97 13.511 180.866 14.2372 180.872 14.9667C180.865 15.701 180.972 16.4318 181.187 17.133C181.38 17.7611 181.69 18.3458 182.102 18.8553C182.503 19.3337 183.002 19.7175 183.565 19.9799C184.178 20.2645 184.847 20.4063 185.521 20.3949C186.359 20.429 187.185 20.1825 187.87 19.6936C188.474 19.2455 188.966 18.6598 189.305 17.9838L191.847 18.432ZM195.287 7.55482H204.75V9.82072H197.78V13.6927H204.262V15.9171H197.792V20.0671H204.893V22.3454H195.287V7.55482Z" fill="#E9E9E9"/>
</g>
<defs>
<clipPath id="clip0">
<rect width="205" height="30" fill="white"/>
</clipPath>
</defs>
</svg>
