<svg width="166" height="24" viewBox="0 0 166 24" fill="none" xmlns="http://www.w3.org/2000/svg">
<g clip-path="url(#clip0)">
<path d="M6.13866 12.7136L15.4944 3.36784C16.1265 2.73915 16.9817 2.38624 17.8732 2.38624C18.7647 2.38624 19.6199 2.73915 20.252 3.36784L20.9791 4.09492L22.4365 2.63744L21.7095 1.90704C20.6899 0.889709 19.3085 0.318359 17.8682 0.318359C16.4279 0.318359 15.0465 0.889709 14.027 1.90704L4.67786 11.2562L6.13866 12.7136Z" fill="black"/>
<path d="M18.6285 6.44549L17.171 4.98801L7.81195 14.3471C7.17973 14.9789 6.32245 15.3336 5.42867 15.3333C4.5349 15.333 3.67786 14.9776 3.04609 14.3454C2.41432 13.7132 2.05956 12.8559 2.05988 11.9622C2.06019 11.0684 2.41554 10.2113 3.04775 9.57957L11.122 1.50533L9.66451 0.0478516L1.59027 8.12209C1.07626 8.62418 0.666983 9.22327 0.386145 9.88465C0.105307 10.546 -0.04151 11.2566 -0.0458016 11.9751C-0.0500931 12.6936 0.088226 13.4059 0.361144 14.0706C0.634061 14.7352 1.03615 15.3392 1.54413 15.8474C2.0521 16.3556 2.65586 16.7579 3.32044 17.0311C3.98501 17.3043 4.69719 17.443 5.41571 17.439C6.13424 17.435 6.84484 17.2885 7.50634 17.0079C8.16785 16.7274 8.76711 16.3184 9.26943 15.8046L18.6285 6.44549ZM27.9444 8.12209C26.9245 7.10557 25.5432 6.53478 24.1032 6.53478C22.6632 6.53478 21.2819 7.10557 20.2619 8.12209L10.9029 17.4812L12.3603 18.9387L21.7194 9.57957C22.1909 9.10905 22.7912 8.7888 23.4446 8.65928C24.0979 8.52975 24.775 8.59675 25.3903 8.85183C26.0056 9.1069 26.5315 9.5386 26.9016 10.0924C27.2717 10.6462 27.4694 11.2973 27.4697 11.9633C27.4714 12.4071 27.3841 12.8466 27.213 13.2561C27.042 13.6655 26.7906 14.0365 26.4737 14.3471L18.4094 22.4213L19.8702 23.8788L27.9444 15.8046C28.9618 14.7851 29.5331 13.4036 29.5331 11.9633C29.5331 10.5231 28.9618 9.14161 27.9444 8.12209Z" fill="black"/>
<path d="M23.3961 11.2133L14.037 20.569C13.4041 21.2 12.5469 21.5542 11.6532 21.5542C10.7596 21.5542 9.90236 21.2 9.26946 20.569L8.54238 19.8386L7.0849 21.2961L7.81198 22.0265C8.83193 23.0431 10.2132 23.6138 11.6532 23.6138C13.0932 23.6138 14.4745 23.0431 15.4945 22.0265L24.8535 12.6641L23.3961 11.2133ZM38.0804 14.4802C38.1762 15.0353 38.4787 15.5335 38.927 15.8746C39.4413 16.2304 40.0587 16.4066 40.6833 16.3759C41.2779 16.4138 41.8665 16.2384 42.3433 15.8812C42.5334 15.7231 42.6848 15.5237 42.7861 15.2981C42.8873 15.0726 42.9357 14.8269 42.9276 14.5798C42.9343 14.3486 42.8805 14.1197 42.7716 13.9158C42.6625 13.7306 42.5126 13.5728 42.3333 13.4543C42.1195 13.3123 41.8872 13.2006 41.6428 13.1223L40.7198 12.8434L39.84 12.6044C39.3523 12.4751 38.8777 12.3006 38.4224 12.0831C38.0315 11.8983 37.6701 11.6566 37.35 11.366C37.0645 11.1009 36.8382 10.7785 36.686 10.4198C36.5236 10.0252 36.4445 9.60139 36.4536 9.17481C36.4489 8.70218 36.5511 8.23459 36.7524 7.80697C36.9465 7.39081 37.234 7.025 37.5924 6.73793C37.9866 6.42237 38.4373 6.18464 38.9204 6.03741C39.4849 5.85854 40.0746 5.77221 40.6667 5.78177C41.8862 5.78177 42.8524 6.0695 43.5651 6.64497C43.9183 6.92941 44.2112 7.28147 44.4267 7.68052C44.6422 8.07957 44.7759 8.5176 44.82 8.96897L42.828 9.13165C42.7294 8.6746 42.4732 8.26678 42.1043 7.97961C41.6569 7.68058 41.1241 7.53601 40.587 7.56793C40.0802 7.53814 39.5788 7.68607 39.1694 7.98625C39.0058 8.1137 38.8744 8.27768 38.7856 8.46505C38.6969 8.65242 38.6532 8.85797 38.6581 9.06525C38.6499 9.28622 38.7015 9.50529 38.8075 9.69937C38.9143 9.87851 39.0608 10.0307 39.2358 10.1442C39.449 10.283 39.6788 10.3945 39.9197 10.4762C40.1886 10.5758 40.4941 10.6821 40.8327 10.7916L41.676 11.0539C42.2005 11.2199 42.6753 11.3926 43.1003 11.5718C43.4911 11.7381 43.8548 11.9619 44.1793 12.2358C44.4717 12.4834 44.7054 12.793 44.8632 13.1422C45.034 13.5542 45.1155 13.9978 45.1022 14.4436C45.1077 14.9648 44.9942 15.4803 44.7702 15.9509C44.5542 16.4029 44.2386 16.8002 43.8473 17.1129C43.4267 17.4455 42.9483 17.6976 42.4363 17.8566C41.8528 18.0381 41.2445 18.1266 40.6335 18.1189C39.553 18.1591 38.4871 17.8596 37.5857 17.2623C37.165 16.9578 36.8126 16.5686 36.5513 16.1198C36.29 15.6709 36.1255 15.1724 36.0685 14.6561L38.0804 14.4802ZM53.5018 5.81497C54.3369 5.80416 55.1661 5.95757 55.942 6.26649C56.6507 6.55034 57.2904 6.9828 57.8178 7.53473C58.3471 8.0975 58.757 8.76154 59.023 9.48689C59.315 10.2842 59.4601 11.1278 59.4513 11.9769C59.4632 12.8415 59.3088 13.7004 58.9964 14.5067C58.7053 15.2396 58.2655 15.9043 57.7049 16.4589L59.2853 18.3081V18.8825H57.2933L56.1877 17.5312C55.7872 17.7229 55.3677 17.872 54.9361 17.9761C54.4702 18.0757 53.9948 18.1247 53.5184 18.1222C52.6737 18.1273 51.8364 17.9648 51.055 17.6441C50.3503 17.3585 49.7151 16.9248 49.1925 16.3726C48.6696 15.8123 48.2664 15.1515 48.0072 14.4304C47.7209 13.6409 47.5781 12.8066 47.5856 11.9669C47.5773 11.1217 47.7201 10.2819 48.0072 9.48689C48.268 8.76327 48.6748 8.10104 49.2024 7.54137C49.7286 6.9893 50.3656 6.55482 51.0716 6.26649C51.843 5.95391 52.6696 5.80033 53.5018 5.81497ZM53.4852 7.59449C52.9371 7.58604 52.3939 7.69943 51.8949 7.92649C51.4365 8.13826 51.0315 8.45027 50.7097 8.83949C50.3751 9.24762 50.1226 9.7166 49.966 10.2206C49.7928 10.7818 49.7077 11.3664 49.7137 11.9536C49.7079 12.546 49.7964 13.1355 49.976 13.7C50.1368 14.2086 50.3913 14.6826 50.7263 15.0977C51.0475 15.4916 51.4524 15.8092 51.9115 16.0273C52.41 16.256 52.9535 16.3694 53.5018 16.3593C54.0497 16.3646 54.5922 16.2514 55.0921 16.0273C55.5496 15.82 55.9547 15.5125 56.2773 15.1276C56.6163 14.7188 56.8713 14.2472 57.0277 13.7398C57.2093 13.162 57.2989 12.5593 57.2933 11.9536C57.2983 11.3568 57.2087 10.7628 57.0277 10.194C56.869 9.6896 56.6142 9.22061 56.2773 8.81293C55.9513 8.42791 55.5443 8.11957 55.0855 7.90989C54.5815 7.68919 54.0353 7.58154 53.4852 7.59449ZM67.2765 16.4423C67.6456 16.465 68.0152 16.4066 68.3593 16.2713C68.7035 16.1359 69.0138 15.9269 69.2685 15.6588C69.7399 15.1386 69.9757 14.3396 69.9757 13.2617V6.04405H72.044V13.3281C72.0604 14.0744 71.948 14.8178 71.712 15.526C71.5213 16.0932 71.1994 16.6073 70.7725 17.0266C70.3489 17.4276 69.8355 17.7213 69.2751 17.8832C67.9716 18.2437 66.5947 18.2437 65.2911 17.8832C64.7328 17.7212 64.2216 17.4274 63.8005 17.0266C63.3746 16.6065 63.0528 16.0926 62.8609 15.526C62.625 14.8178 62.5127 14.0744 62.5289 13.3281V6.04405H64.6039V13.2617C64.6039 14.3374 64.8407 15.1364 65.3144 15.6588C65.5655 15.9232 65.8709 16.1302 66.2096 16.2655C66.5483 16.4007 66.9123 16.461 67.2765 16.4423ZM74.1157 17.3121L78.3155 6.05733H81.4297L85.583 17.3121V17.8765H83.5412L82.3526 14.4968H77.2299L76.028 17.8765H74.1024L74.1157 17.3121ZM77.854 12.7305H81.7617L81.1176 10.8514C80.8653 10.1177 80.6627 9.52341 80.5067 9.05529C80.3507 8.58717 80.2179 8.18877 80.095 7.83685H79.5871L79.3879 8.39793C79.3215 8.58385 79.2484 8.79301 79.1654 9.02209C79.0824 9.25117 78.9928 9.51677 78.8932 9.81557C78.7936 10.1144 78.6741 10.4563 78.5313 10.8514L77.854 12.7305ZM97.1831 17.8765H95.1911L91.5822 13.2285H90.2542V17.8765H88.2091V6.04405H92.0503C92.6258 6.04304 93.2006 6.08409 93.7701 6.16689C94.2993 6.24362 94.8043 6.43882 95.2475 6.73793C96.1815 7.35324 96.6485 8.28062 96.6485 9.52009C96.6578 10.0004 96.5756 10.4782 96.4062 10.9278C96.2627 11.3063 96.0474 11.6535 95.7721 11.9503C95.5095 12.2293 95.2006 12.4607 94.8591 12.6342C94.5168 12.8093 94.1544 12.9419 93.7801 13.0293L97.1831 17.3121V17.8765ZM90.2476 11.449H92.0437C92.6949 11.4837 93.3428 11.3341 93.9129 11.0174C94.1425 10.864 94.327 10.6519 94.4472 10.4033C94.5675 10.1546 94.6191 9.87838 94.5968 9.60309C94.6239 9.32986 94.5732 9.05452 94.4504 8.80893C94.3276 8.56334 94.1378 8.35754 93.9029 8.21533C93.3266 7.92878 92.6867 7.79394 92.0437 7.82357H90.2476V11.449ZM99.8191 6.04405H107.482V7.85677H101.838V10.9543H107.077V12.7338H101.848V16.0538H107.598V17.8765H99.8191V6.04405ZM112.18 14.4802C112.275 15.0353 112.578 15.5335 113.026 15.8746C113.541 16.2299 114.158 16.4061 114.782 16.3759C115.377 16.4138 115.966 16.2384 116.442 15.8812C116.632 15.7231 116.784 15.5237 116.885 15.2981C116.986 15.0726 117.035 14.8269 117.027 14.5798C117.033 14.3486 116.98 14.1197 116.871 13.9158C116.762 13.7306 116.612 13.5728 116.432 13.4543C116.219 13.3123 115.986 13.2006 115.742 13.1223L114.819 12.8434L113.929 12.5977C113.441 12.4685 112.967 12.294 112.512 12.0765C112.121 11.8917 111.759 11.65 111.439 11.3594C111.154 11.0943 110.927 10.7718 110.775 10.4132C110.611 9.9953 110.532 9.5488 110.544 9.10003C110.555 8.65126 110.656 8.20932 110.842 7.80033C111.037 7.38486 111.324 7.01927 111.682 6.73129C112.076 6.41573 112.526 6.178 113.009 6.03077C113.574 5.8519 114.164 5.76557 114.756 5.77513C115.975 5.77513 116.943 6.06286 117.658 6.63833C118.01 6.92295 118.303 7.2751 118.518 7.67416C118.733 8.07322 118.866 8.51117 118.909 8.96233L116.917 9.12501C116.82 8.6689 116.567 8.26122 116.2 7.97297C115.753 7.67349 115.22 7.52888 114.683 7.56129C114.176 7.53149 113.675 7.67943 113.265 7.97961C113.102 8.10741 112.971 8.27153 112.883 8.45888C112.795 8.64623 112.752 8.85161 112.757 9.05861C112.748 9.27927 112.798 9.49833 112.903 9.69273C113.01 9.87187 113.157 10.0241 113.332 10.1376C113.545 10.2763 113.775 10.3879 114.015 10.4696C114.284 10.5692 114.59 10.6754 114.932 10.785L115.772 11.0473C116.299 11.2133 116.773 11.3859 117.196 11.5652C117.587 11.7314 117.951 11.9552 118.275 12.2292C118.567 12.4768 118.801 12.7864 118.959 13.1356C119.13 13.5476 119.211 13.9912 119.198 14.437C119.204 14.9582 119.09 15.4737 118.866 15.9443C118.651 16.397 118.335 16.7945 117.943 17.1063C117.522 17.4362 117.043 17.686 116.532 17.8433C115.947 18.0248 115.338 18.1133 114.726 18.1056C113.645 18.1454 112.58 17.8459 111.678 17.249C111.26 16.9454 110.91 16.558 110.65 16.1116C110.39 15.6652 110.226 15.1695 110.168 14.6561L112.18 14.4802ZM122.146 6.04405H126.462C127.146 6.02639 127.828 6.12174 128.481 6.32625C128.977 6.47914 129.431 6.74378 129.809 7.09981C130.141 7.42272 130.389 7.82152 130.532 8.26181C130.685 8.72677 130.76 9.21348 130.755 9.70269C130.768 10.2539 130.664 10.8018 130.449 11.3096C130.255 11.7536 129.953 12.1418 129.57 12.4384C129.15 12.7488 128.674 12.9744 128.169 13.1024C127.56 13.2584 126.934 13.3332 126.306 13.3248H124.215V17.8765H122.153L122.146 6.04405ZM124.208 11.5486H126.183C126.517 11.5511 126.851 11.5211 127.179 11.459C127.459 11.4067 127.726 11.3043 127.969 11.1568C128.193 11.0169 128.375 10.8198 128.497 10.5858C128.631 10.3111 128.696 10.008 128.687 9.70269C128.696 9.38982 128.632 9.07911 128.497 8.79633C128.379 8.55934 128.199 8.35864 127.976 8.21533C127.737 8.06682 127.472 7.96435 127.196 7.91321C126.868 7.85062 126.534 7.8206 126.2 7.82357H124.191L124.208 11.5486ZM131.326 17.3121L135.529 6.05733H138.643L142.793 17.3121V17.8765H140.768L139.583 14.4968H134.44L133.255 17.8765H131.326V17.3121ZM135.068 12.7305H138.972L138.328 10.8514C138.076 10.1177 137.873 9.52341 137.72 9.05529L137.309 7.83685H136.784L136.585 8.39793C136.518 8.58385 136.445 8.79301 136.362 9.02209C136.279 9.25117 136.19 9.51677 136.09 9.81557C135.991 10.1144 135.871 10.4563 135.728 10.8514L135.068 12.7305ZM155.349 14.7458C155.162 15.2087 154.917 15.646 154.619 16.0472C154.311 16.4585 153.94 16.8192 153.52 17.1162C153.065 17.4358 152.562 17.6802 152.029 17.84C151.418 18.0232 150.782 18.1127 150.144 18.1056C149.319 18.1181 148.501 17.961 147.74 17.6441C147.043 17.3533 146.415 16.9189 145.897 16.3692C145.377 15.807 144.976 15.1452 144.719 14.4237C144.437 13.639 144.297 12.8106 144.304 11.9769C144.296 11.1432 144.437 10.3147 144.719 9.53005C144.977 8.80536 145.38 8.14104 145.904 7.57789C146.425 7.02235 147.056 6.58139 147.757 6.28309C148.52 5.962 149.342 5.80261 150.17 5.81497C151.322 5.77401 152.459 6.09061 153.424 6.72133C154.282 7.30565 154.931 8.14737 155.28 9.12501L153.185 9.53669C152.924 8.96167 152.511 8.46908 151.99 8.11241C151.439 7.75584 150.793 7.57521 150.137 7.59449C149.599 7.58272 149.066 7.69639 148.58 7.92649C148.132 8.14618 147.739 8.46255 147.428 8.85277C147.102 9.26846 146.858 9.74296 146.711 10.2505C146.541 10.809 146.457 11.3899 146.462 11.9736C146.457 12.561 146.543 13.1456 146.717 13.7066C146.874 14.2091 147.125 14.6769 147.458 15.0844C147.783 15.4671 148.187 15.7742 148.643 15.9841C149.139 16.2118 149.681 16.3253 150.227 16.3161C150.905 16.3434 151.574 16.1462 152.129 15.755C152.618 15.3966 153.016 14.928 153.291 14.3872L155.349 14.7458ZM158.135 6.04405H165.798V7.85677H160.154V10.9543H165.402V12.7338H160.163V16.0538H165.914V17.8765H158.135V6.04405Z" fill="black"/>
</g>
<defs>
<clipPath id="clip0">
<rect width="166" height="24" fill="white"/>
</clipPath>
</defs>
</svg>
